<?xml version="1.0" encoding="UTF-8" standalone="no"?>
<!-- Created with Inkscape (http://www.inkscape.org/) -->

<svg
   width="67.478439mm"
   height="43.015156mm"
   viewBox="0 0 67.478439 43.015156"
   version="1.1"
   id="svg5"
   inkscape:version="1.1.2 (0a00cf5339, 2022-02-04, custom)"
   sodipodi:docname="drawing.svg"
   xmlns:inkscape="http://www.inkscape.org/namespaces/inkscape"
   xmlns:sodipodi="http://sodipodi.sourceforge.net/DTD/sodipodi-0.dtd"
   xmlns="http://www.w3.org/2000/svg"
   xmlns:svg="http://www.w3.org/2000/svg">
  <sodipodi:namedview
     id="namedview7"
     pagecolor="#ffffff"
     bordercolor="#666666"
     borderopacity="1.0"
     inkscape:pageshadow="2"
     inkscape:pageopacity="0.0"
     inkscape:pagecheckerboard="0"
     inkscape:document-units="mm"
     showgrid="false"
     fit-margin-top="0"
     fit-margin-left="0"
     fit-margin-right="0"
     fit-margin-bottom="0"
     inkscape:zoom="0.74029882"
     inkscape:cx="-266.78416"
     inkscape:cy="121.57253"
     inkscape:window-width="1920"
     inkscape:window-height="1017"
     inkscape:window-x="-8"
     inkscape:window-y="-8"
     inkscape:window-maximized="1"
     inkscape:current-layer="layer1" />
  <defs
     id="defs2" />
  <g
     inkscape:label="Layer 1"
     inkscape:groupmode="layer"
     id="layer1"
     transform="translate(-72.907869,-59.327299)">
    <g
       id="g1103">
      <path
         style="fill:#000000;fill-opacity:1;fill-rule:nonzero;stroke:none;stroke-width:0.264583"
         id="path42"
         d="m 120.31448,71.472088 c -0.52664,-2.038707 -1.03843,-4.085156 -1.89682,-6.012608 -0.90619,-1.82761 -2.47192,-2.989456 -4.17665,-4.008337 -1.81697,-0.899986 -3.76161,-1.475886 -5.74248,-1.876648 -1.61659,-0.344617 -3.22506,-0.312274 -4.83957,-0.0061 -2.08052,0.723106 -4.282464,1.638914 -5.796254,3.277767 -0.259752,0.28121 -0.747559,0.921088 -0.980858,1.220777 -1.028906,1.375463 -1.795613,2.916026 -2.545717,4.454085 -0.997297,1.826059 -1.832401,3.733782 -2.57347,5.675916 -0.631817,1.721133 -1.066879,3.491302 -1.327325,5.303631 -0.237146,1.941473 -0.461708,3.884155 -0.691038,5.826665 -0.255596,1.831491 -0.513393,3.660314 -0.803783,5.48668 -0.02373,0.979969 -0.427932,2.142366 -0.161021,3.110349 0.05107,0.185222 0.143005,0.356667 0.214509,0.535001 0.612933,1.132464 1.65214,1.848181 2.734786,2.483466 1.58632,0.884026 3.281288,1.543267 4.982056,2.168684 1.68973,0.683752 3.468165,1.100084 5.257295,1.422294 1.67353,0.2592 3.36908,0.30033 5.05897,0.33313 1.42041,0.0186 2.84307,0.072 4.24268,-0.2019 2.70412,-0.808034 5.21705,-2.256302 7.40387,-4.033987 1.51532,-1.322499 2.43871,-3.15749 3.12606,-5.016667 0.50601,-1.790295 0.79433,-3.634256 0.96928,-5.483947 0.12708,-1.60673 0.13371,-3.218564 0.14539,-4.829125 0.0152,-1.183124 0.0383,-2.358078 -0.10672,-3.533145 -0.12242,-1.0825 -0.38423,-2.145996 -0.71803,-3.181665 -0.26987,-0.911444 -0.58827,-1.807099 -0.78356,-2.738818 -0.1542,-0.554197 -0.33212,-1.092891 -0.55966,-1.62043 0,0 -3.46052,1.945293 -3.46052,1.945293 v 0 c 0.21849,0.502293 0.38762,1.018011 0.5361,1.54573 0.21277,0.93885 0.53108,1.846435 0.81039,2.766515 0.32092,1.015934 0.57041,2.056215 0.67943,3.11776 0.13589,1.155515 0.10506,2.316176 0.10622,3.478234 -0.003,1.597848 -0.019,3.197775 -0.15047,4.79113 -0.18186,1.816569 -0.45921,3.635984 -1.00194,5.382996 -0.72384,1.817738 -1.662,3.583659 -3.21704,4.827151 -1.58825,1.205172 -0.86446,0.602104 1.94364,-0.936858 0.22121,-0.121229 -0.42875,0.266748 -0.65227,0.38367 -0.67545,0.353337 -0.61913,0.270785 -1.33151,0.520292 -0.2054,0.07194 -0.40719,0.153813 -0.61079,0.230722 -1.36746,0.380426 -2.78807,0.293706 -4.19567,0.28752 -1.67954,-0.01712 -3.36434,-0.04796 -5.03083,-0.27818 -1.77869,-0.293076 -3.54995,-0.690616 -5.229927,-1.356641 -1.680453,-0.605234 -3.35272,-1.261446 -4.917307,-2.129514 -1.014701,-0.576771 -1.999491,-1.214406 -2.58317,-2.262884 -0.0556,-0.151185 -0.129706,-0.296801 -0.166812,-0.453556 -0.221482,-0.935691 0.162973,-2.058377 0.188069,-3.00001 0.269224,-1.827975 0.519493,-3.657984 0.775681,-5.487802 0.229344,-1.938142 0.45289,-3.87676 0.694518,-5.813439 0.290701,-1.784664 0.741061,-3.531713 1.366931,-5.230272 0.743084,-1.933615 1.597906,-3.821967 2.58867,-5.642544 0.763656,-1.519222 1.542526,-3.042452 2.597257,-4.385665 0.33152,-0.405913 0.63131,-0.802401 1.01769,-1.159851 0.16474,-0.152405 0.72736,-0.520747 0.5279,-0.417872 -5.554757,2.865019 -2.746959,1.529297 -1.49609,0.990618 1.58128,-0.371504 3.15642,-0.443457 4.7598,-0.128717 1.95894,0.354902 3.87186,0.906844 5.67754,1.758744 1.6486,0.960273 3.17325,2.048512 4.0441,3.808849 0.8653,1.890231 1.40172,3.908229 1.81258,5.942832 0,0 3.48589,-1.849284 3.48589,-1.849284 z" />
      <path
         style="fill:#000000;fill-opacity:1;fill-rule:nonzero;stroke:none;stroke-width:0.264583"
         id="path54"
         d="m 123.44817,91.760348 c -2.9012,0.11031 -3.55938,0.989733 -6.4889,2.697449 -0.82627,0.75049 -1.19411,1.879893 -1.50485,2.923966 -0.33417,1.159398 -0.34616,1.969627 0.39839,2.946647 0.77453,0.78251 1.82216,1.08273 2.86634,1.31554 3.09348,0.40048 3.79519,-0.72423 6.81863,-2.547042 0.7225,-1.059476 0.86112,-2.319345 0.93978,-3.564633 0.0758,-1.040387 -0.0732,-2.080255 -0.46569,-3.045709 -0.35836,-0.659791 -0.98498,-1.051697 -1.60035,-1.440188 -0.0989,-0.05871 -0.19781,-0.117424 -0.29672,-0.176136 0,0 -3.32497,2.160196 -3.32497,2.160196 v 0 c 0.0956,0.05306 0.19117,0.10613 0.28675,0.159195 0.54065,0.353348 1.14151,0.649211 1.48019,1.22878 0.37012,0.912085 0.48044,1.895396 0.40132,2.874958 -0.0969,1.167354 -0.23001,2.384168 -1.08087,3.268329 0.98019,-0.53856 1.96225,-1.073711 2.94056,-1.615676 0.1634,-0.09052 -0.32164,0.193636 -0.49575,0.261295 -0.75242,0.292388 -1.58599,0.232854 -2.37194,0.188907 -0.96005,-0.184444 -1.95204,-0.427403 -2.69983,-1.09474 -0.6941,-0.848156 -0.52352,-1.601679 -0.23289,-2.600997 0.33035,-1.003247 0.71788,-2.059895 1.62392,-2.681356 -6.08516,3.429931 -3.28872,1.625139 -2.06505,1.294841 0.5456,-0.147272 1.11023,-0.162261 1.66816,-0.225951 0,0 3.20377,-2.327675 3.20377,-2.327675 z" />
      <g
         id="g566"
         transform="translate(18.227437,4.6462094)">
        <path
           style="fill:#000000;fill-opacity:1;fill-rule:nonzero;stroke:none;stroke-width:0.264583"
           id="path44"
           d="m 74.75258,71.391113 c -1.833121,0.02816 -3.666546,0.01722 -5.499777,0.0085 -1.052674,-0.03554 -2.083152,-0.04108 -3.108725,0.213157 -1.709997,0.533204 -3.108584,1.597924 -4.684453,2.507329 -0.385413,0.222417 -0.73819,0.481931 -1.090335,0.752483 -0.591865,0.571667 -1.210212,1.115242 -1.804556,1.6853 -0.945954,0.765578 -1.529434,1.793875 -2.136121,2.82356 -0.596913,0.990049 -0.838057,2.102056 -0.957988,3.235994 -0.151071,0.741291 -0.285123,1.480328 -0.481883,2.210199 -0.05097,0.57993 -0.439986,1.228172 -0.262024,1.817066 0.03556,0.117663 0.116088,0.216702 0.17413,0.325051 0.817007,0.653828 1.94537,0.635209 2.946082,0.679263 2.552406,-0.03704 4.632434,-1.767425 6.747605,-2.994708 0.874078,-0.591444 1.626537,-1.303605 2.341383,-2.073775 0.713579,-0.772755 1.402723,-1.565347 2.08139,-2.36918 0.692258,-0.751882 1.301713,-1.571175 1.872612,-2.417045 0.457872,-0.650632 0.956717,-1.273554 1.433867,-1.913223 0.378156,-0.459844 0.839957,-0.842958 1.217647,-1.300012 0.52387,-0.400304 0.818039,-0.971174 1.156663,-1.529202 0.225158,-0.486098 0.457626,-0.96606 0.682416,-1.452562 0,0 -3.606747,1.642419 -3.606747,1.642419 v 0 c -0.225261,0.471358 -0.424662,0.956892 -0.695336,1.404697 -0.35193,0.53635 -0.715205,1.045821 -1.199755,1.472745 -0.42059,0.420854 -0.81923,0.863798 -1.194086,1.325935 -0.493718,0.628243 -0.950751,1.282055 -1.420527,1.928059 -0.586089,0.82487 -1.191834,1.631661 -1.878028,2.377405 -0.680479,0.799375 -1.375296,1.587156 -2.094717,2.351704 -0.71741,0.745601 -1.496454,1.418212 -2.372336,1.974998 5.662422,-3.218037 3.016469,-1.596302 1.789409,-1.080045 -0.525955,0.221282 -1.094563,0.324353 -1.661996,0.344501 -0.902656,-0.0241 -1.846477,-0.02418 -2.701036,-0.347845 -0.304142,-0.552654 0.157429,-1.295133 0.219823,-1.873554 0.192419,-0.741818 0.317159,-1.498955 0.44336,-2.254414 0.137861,-1.089689 0.421034,-2.139238 1.013338,-3.079033 0.609637,-1.018799 1.272077,-1.971963 2.199976,-2.732783 0.595331,-0.559806 1.197224,-1.114129 1.823167,-1.639502 0.36059,-0.254087 0.349854,-0.25441 0.723607,-0.486439 0.125055,-0.07764 0.506595,-0.299958 0.378356,-0.227695 -5.479171,3.08764 -3.429603,1.828956 -2.138375,1.318572 0.11921,-0.03456 0.771308,-0.226393 0.889293,-0.249229 0.71722,-0.138824 1.458537,-0.01627 2.181863,-0.06484 1.825376,-0.0085 3.650959,-0.01992 5.476219,0.0086 0,0 3.196595,-2.322465 3.196595,-2.322465 z" />
        <g
           id="g561"
           transform="translate(-15.649789,1.1612192)">
          <path
             style="fill:#d40000;stroke-width:1.35081"
             d="m 282.65613,315.83283 c -1.30015,-0.33976 -2.36391,-0.81209 -2.36391,-1.04962 0,-0.23753 0.96995,-5.20782 2.15545,-11.0451 2.41367,-11.88464 7.29087,-20.70695 14.66792,-26.5326 4.60327,-3.6352 5.2315,-3.74912 18.62251,-3.37701 l 13.85853,0.38509 -5.51842,6.07863 c -3.03513,3.34324 -7.95766,9.42187 -10.93897,13.50806 -2.9813,4.08619 -8.72668,10.92464 -12.76752,15.19656 -7.41724,7.84141 -10.02202,8.84653 -17.71559,6.83599 z"
             id="path244"
             transform="scale(0.26458333)" />
        </g>
      </g>
      <g
         id="g558"
         transform="translate(-4.2888087,10.364621)">
        <path
           style="fill:#000000;fill-opacity:1;fill-rule:nonzero;stroke:none;stroke-width:0.264583"
           id="path46"
           d="m 122.16483,70.167724 c 2.06881,0.148767 4.14203,0.219554 6.21532,0.265459 1.73155,0.03354 3.46336,0.05101 5.19519,0.06062 0.90755,0.005 1.81511,0.0064 2.72267,0.0069 0.74852,0.02635 1.43835,0.377425 2.09258,0.713893 0.81412,0.500719 1.32479,1.337612 1.73311,2.179823 0.35543,0.662247 0.6345,1.373219 0.84234,2.095868 0.0508,0.474334 0.35697,1.296186 0.16291,1.754343 -0.0333,0.07854 -0.11226,0.128445 -0.16838,0.192667 -1.51234,0.474583 0.38554,-0.09138 2.59433,-1.678244 0.17256,-0.123976 -0.41454,0.0955 -0.62468,0.126998 -0.78318,0.117374 -1.58142,0.129066 -2.37107,0.156268 -1.66296,0.06918 -3.32504,0.0099 -4.9592,-0.313717 -1.49442,-0.324979 -2.72992,-1.209995 -4.00335,-2.003525 -1.21614,-0.674878 -2.32054,-1.516023 -3.28496,-2.51587 -0.43742,-0.674291 -0.94493,-1.162251 -1.68237,-1.474806 -0.31524,-0.13783 -0.61951,-0.292992 -0.91624,-0.466442 0,0 -3.332,2.149486 -3.332,2.149486 v 0 c 0.3074,0.199694 0.6274,0.357346 0.95539,0.5212 0.79237,0.303905 1.12184,0.603006 1.6093,1.325983 0.99052,1.017251 2.11647,1.893101 3.35836,2.585016 1.31218,0.801238 2.55354,1.751639 4.07744,2.11718 1.64839,0.36394 3.33199,0.447974 5.01751,0.385141 2.72788,-0.06047 5.05525,-0.06399 7.17889,-2.548978 0.21411,-0.727842 0.0316,-1.486651 -0.13633,-2.210919 -0.22325,-0.741034 -0.5052,-1.475279 -0.88069,-2.152343 -0.45351,-0.90438 -1.01139,-1.806138 -1.86077,-2.38484 -0.67837,-0.39393 -1.4214,-0.751293 -2.198,-0.882534 -0.91485,0.0021 -1.82969,0.0063 -2.74453,0.01008 -1.74383,0.0048 -3.48779,0.006 -5.23142,-0.02455 -2.04966,-0.04357 -4.10168,-0.09275 -6.14399,-0.283421 0,0 -3.21736,2.29327 -3.21736,2.29327 z" />
        <path
           style="fill:#d40000;stroke-width:1.35081"
           d="m 512.63083,285.21886 c -6.20498,-1.67924 -23.4959,-12.09917 -26.84381,-16.17675 -1.71351,-2.08695 -0.66166,-2.25795 13.88914,-2.25795 21.87374,0 25.54609,1.79218 31.13933,15.19657 l 2.11368,5.06552 -7.10985,-0.0912 c -3.91043,-0.0502 -9.84524,-0.83144 -13.18849,-1.73622 z"
           id="path283"
           transform="scale(0.26458333)" />
      </g>
      <g
         id="g1082"
         transform="translate(2.719049,0.807501)">
        <path
           style="fill:#000000;fill-opacity:1;fill-rule:nonzero;stroke:none;stroke-width:0.264583"
           id="path52"
           d="m 89.907029,90.916052 c -1.360193,-0.673687 -2.807954,-1.158888 -4.308599,-1.385895 -2.783332,-0.113694 -5.035539,1.948855 -6.40983,4.156189 -0.762362,1.160714 -1.291399,2.446607 -1.661917,3.779792 -0.311097,1.182547 -0.276278,1.896512 0.592,2.802592 1.207402,0.86617 2.702939,1.06191 4.142399,1.21561 2.642489,0.25966 4.104489,-0.46779 6.435733,-2.460377 0.453657,-0.750107 0.808008,-1.539235 1.061929,-2.377927 0.130781,-0.740606 0.298632,-1.464982 0.466465,-2.197492 0.185219,-0.767138 0.160857,-1.319869 -0.178564,-2.032664 -0.224589,-0.465698 -0.118171,-0.231309 -0.319519,-0.703045 0,0 -3.452172,1.93893 -3.452172,1.93893 v 0 c 0.208529,0.484169 0.100983,0.246351 0.322143,0.713671 0.266444,0.601903 0.225126,1.16931 0.05275,1.801754 -0.174414,0.718775 -0.277276,1.448914 -0.468559,2.163032 -0.266613,0.77419 -0.585044,1.567067 -1.164016,2.162938 -1.190268,0.82375 -1.062328,0.72121 2.771495,-1.507403 0.13272,-0.07715 -0.276077,0.140917 -0.42545,0.176352 -0.61323,0.145482 -1.288288,0.06679 -1.906678,0.04747 -1.362681,-0.119046 -2.787583,-0.259778 -3.971147,-1.006321 -0.812829,-0.751877 -0.658132,-1.436225 -0.400182,-2.426169 0.38816,-1.295905 0.929785,-2.539793 1.69056,-3.663931 0.346509,-0.503708 0.499695,-0.773488 0.921735,-1.209402 0.160009,-0.165275 0.720831,-0.560401 0.513162,-0.461447 -0.991021,0.472228 -1.922373,1.060638 -2.883562,1.590955 0.164582,-0.06284 0.321596,-0.151069 0.493739,-0.188515 0.185666,-0.04039 0.378958,-0.02836 0.568439,-0.04254 1.468842,0.13789 2.890081,0.608476 4.204824,1.272998 0,0 3.312824,-2.159154 3.312824,-2.159154 z" />
        <g
           id="g587">
          <path
             style="fill:#d40000;stroke-width:1.35081"
             d="m 316.82465,373.29378 c -3.30988,-0.60526 -7.17937,-2.26188 -8.59888,-3.68138 -2.48193,-2.48194 -2.49338,-2.84445 -0.29858,-9.45237 1.25528,-3.7793 3.31664,-8.14877 4.58079,-9.70993 2.24325,-2.77031 2.43686,-2.7831 8.06109,-0.53273 3.16945,1.26816 5.45487,2.61351 5.07871,2.98967 -0.37615,0.37615 -0.0604,1.84894 0.70165,3.27287 1.41401,2.64209 -0.64087,16.74825 -2.5846,17.74258 -0.50722,0.25947 -3.63031,-0.0234 -6.94018,-0.62871 z"
             id="path322"
             transform="scale(0.26458333)" />
        </g>
      </g>
      <path
         style="fill:#d40000;stroke-width:1.35081"
         d="m 454.36865,372.80912 c -1.955,-1.06224 -3.91379,-2.86751 -4.35286,-4.01171 -0.89919,-2.34324 6.86851,-14.21087 9.30141,-14.21087 2.198,0 4.68462,6.06973 4.68462,11.43493 0,8.9391 -2.47019,10.67962 -9.63317,6.78765 z"
         id="path361"
         transform="scale(0.26458333)" />
      <path
         style="fill:#000080;stroke-width:1.35081"
         d="m 397.52155,370.68593 c -16.0228,-2.34866 -38.06886,-11.50534 -44.81896,-18.61526 l -3.91017,-4.11859 3.64088,-28.08901 c 2.00249,-15.44895 4.56381,-31.73618 5.69184,-36.19384 2.25227,-8.90035 13.21466,-32.86689 19.55274,-42.74721 4.9313,-7.68731 9.1696,-8.83142 22.38933,-6.04393 11.94465,2.51863 20.4372,6.24959 26.65778,11.71134 5.95365,5.22737 8.41555,9.69443 11.72961,21.2831 1.36342,4.7676 3.38513,9.36045 4.4927,10.20633 1.10757,0.84588 3.26082,6.09265 4.785,11.6595 l 2.77124,10.12155 -3.0442,2.34337 -3.04421,2.34337 3.37702,0.073 c 3.30976,0.0715 3.32321,0.11416 0.6754,2.13976 -2.64685,2.02488 -2.64955,2.10535 -0.13326,3.97017 2.34428,1.73733 2.49598,3.17371 1.7388,16.46385 -1.03005,18.07952 -2.74182,24.20615 -8.26573,29.58411 -2.38241,2.31946 -4.91377,6.24693 -5.62525,8.72771 -0.87833,3.06255 -2.3663,4.80937 -4.63512,5.4415 -4.56986,1.2732 -24.60807,1.1196 -34.02543,-0.26082 z"
         id="path960"
         transform="scale(0.26458333)" />
      <g
         id="g691"
         transform="translate(1.4296038,1.4296027)">
        <path
           style="fill:#000000;fill-opacity:1;fill-rule:nonzero;stroke:none;stroke-width:0.264583"
           id="path84"
           d="m 98.402324,74.491534 c -0.84537,0.881888 -1.487945,1.902476 -1.892805,3.051691 -0.08742,0.93671 0.150532,1.409086 1.022114,1.757109 0.897943,0.250002 1.793116,0.22027 2.685787,-0.01421 1.93502,-0.687988 3.34254,-1.197763 3.64197,-3.057204 0.0965,-0.734253 0.0533,-1.471147 -0.34414,-2.1082 -0.21646,-0.356802 -0.53975,-0.608822 -0.87588,-0.844008 0,0 -2.50631,1.604394 -2.50631,1.604394 v 0 c 0.31287,0.198379 0.61144,0.419261 0.81039,0.739441 0.37021,0.565904 0.34115,1.260647 0.2403,1.907675 -0.0693,0.300329 -0.1356,0.587754 -0.3368,0.833054 -0.0636,0.07754 -0.30534,0.255177 -0.21623,0.209182 0.65907,-0.34018 3.29043,-1.817976 1.9373,-1.09439 -0.88326,0.274296 -1.65724,0.366 -2.574746,0.158284 -0.767061,-0.220575 -0.939366,-0.532667 -0.799065,-1.34125 0.433027,-1.113377 1.094751,-2.09795 1.949351,-2.93702 0,0 -2.741236,1.135456 -2.741236,1.135456 z" />
        <path
           style="fill:#000000;fill-opacity:1;fill-rule:nonzero;stroke:none;stroke-width:0.264583"
           id="path86"
           d="m 112.29015,73.079342 c -2.70684,-0.154906 -3.43432,0.708573 -5.92546,2.204969 -0.54814,0.574214 -0.84176,1.296331 -0.65355,2.077365 0.36139,0.814496 1.18635,0.910931 1.97907,1.007621 0.79935,0.02737 1.64226,0.196593 2.41624,-0.05844 2.68302,-1.567217 2.98244,-1.228855 3.08775,-3.563456 0.0801,-0.608123 -0.0895,-1.055021 -0.44338,-1.533774 0,0 -2.5544,1.517809 -2.5544,1.517809 v 0 c 0.3272,0.417785 0.41501,0.81398 0.3464,1.348481 -0.0247,0.374573 -0.039,0.755994 -0.15258,1.117452 -0.34257,1.090006 -1.99166,1.526624 2.03689,-0.748509 -0.0834,0.06301 -0.15382,0.148643 -0.25024,0.189034 -0.52534,0.220065 -1.50006,-0.03031 -2.0701,0.01482 -0.63912,-0.05898 -1.45345,-0.03185 -1.77202,-0.696265 -0.11607,-0.7029 0.2584,-1.320035 0.78601,-1.764691 -4.635,2.577245 -2.04775,0.988198 -1.20649,0.767305 0.63839,-0.167624 1.30312,-0.191045 1.95858,-0.16001 0,0 2.41728,-1.719712 2.41728,-1.719711 z" />
        <path
           style="fill:#000000;fill-opacity:1;fill-rule:nonzero;stroke:none;stroke-width:0.264583"
           id="path88"
           d="m 99.523935,84.29218 c 1.064345,0.635145 2.184795,1.16183 3.409655,1.376971 2.11369,0.02721 3.98161,-1.415966 5.53562,-2.754188 0.5312,-0.434825 0.28308,-0.211495 0.74759,-0.666375 0,0 -2.74126,1.126239 -2.74126,1.126239 v 0 c -0.47163,0.428789 -0.2232,0.212966 -0.74726,0.645181 -0.83921,0.665104 -2.80431,1.793653 1.11276,-0.464733 0.15715,-0.09061 -0.31488,0.183634 -0.48468,0.247465 -0.37958,0.14269 -0.61016,0.13284 -1.00561,0.163251 -1.20368,-0.138787 -2.30323,-0.654643 -3.33146,-1.281925 0,0 -2.495355,1.608114 -2.495355,1.608114 z" />
      </g>
    </g>
  </g>
</svg>
